<mxfile host="drawio-plugin" modified="2024-01-26T08:33:52.373Z" agent="5.0 (Windows NT 6.2; Win64; x64) AppleWebKit/537.36 (KHTML, like Gecko) Chrome/104.0.5112.102 Safari/537.36" version="20.5.3" etag="6n25s2On7GjXBa7csRWb" type="embed"><diagram id="JlbwxI1RvPWk2843Cbrp" name="Page-1"><mxGraphModel dx="646" dy="563" grid="0" gridSize="10" guides="1" tooltips="1" connect="1" arrows="1" fold="1" page="0" pageScale="1" pageWidth="850" pageHeight="1100" math="0" shadow="0"><root><mxCell id="0"/><mxCell id="1" parent="0"/><mxCell id="7" style="edgeStyle=orthogonalEdgeStyle;rounded=0;orthogonalLoop=1;jettySize=auto;html=1;exitX=1;exitY=0.5;exitDx=0;exitDy=0;entryX=0;entryY=0.5;entryDx=0;entryDy=0;" edge="1" parent="1" source="2" target="3"><mxGeometry relative="1" as="geometry"/></mxCell><mxCell id="2" value="start programm" style="ellipse;whiteSpace=wrap;html=1;aspect=fixed;fillColor=#008a00;fontColor=#ffffff;strokeColor=#005700;" vertex="1" parent="1"><mxGeometry x="40" y="55" width="64" height="64" as="geometry"/></mxCell><mxCell id="3" value="filling array with digits" style="rounded=1;whiteSpace=wrap;html=1;fillColor=#4D4D4D;" vertex="1" parent="1"><mxGeometry x="139" y="75" width="120" height="24" as="geometry"/></mxCell><mxCell id="4" value="" style="endArrow=classic;html=1;rounded=0;entryX=0;entryY=0.5;entryDx=0;entryDy=0;exitX=1;exitY=0.5;exitDx=0;exitDy=0;" edge="1" parent="1" source="3" target="6"><mxGeometry width="50" height="50" relative="1" as="geometry"><mxPoint x="307" y="315" as="sourcePoint"/><mxPoint x="357" y="265" as="targetPoint"/></mxGeometry></mxCell><mxCell id="5" value="finish programm" style="ellipse;whiteSpace=wrap;html=1;aspect=fixed;fillColor=#a20025;fontColor=#ffffff;strokeColor=#6F0000;" vertex="1" parent="1"><mxGeometry x="471" y="361" width="70" height="70" as="geometry"/></mxCell><mxCell id="6" value="calling method combSort(array)" style="rounded=1;whiteSpace=wrap;html=1;fillColor=#4D4D4D;" vertex="1" parent="1"><mxGeometry x="298" y="73" width="100" height="28" as="geometry"/></mxCell><mxCell id="9" value="fiinding the gap == n boolean swapped = true" style="rounded=1;whiteSpace=wrap;html=1;fillColor=#4D4D4D;" vertex="1" parent="1"><mxGeometry x="428" y="66" width="138" height="42" as="geometry"/></mxCell><mxCell id="14" value="" style="endArrow=classic;html=1;rounded=0;entryX=0;entryY=0.5;entryDx=0;entryDy=0;exitX=1;exitY=0.5;exitDx=0;exitDy=0;" edge="1" parent="1" source="6" target="9"><mxGeometry width="50" height="50" relative="1" as="geometry"><mxPoint x="236" y="177" as="sourcePoint"/><mxPoint x="286" y="127" as="targetPoint"/></mxGeometry></mxCell><mxCell id="15" value="while" style="rhombus;whiteSpace=wrap;html=1;" vertex="1" parent="1"><mxGeometry x="435" y="149" width="80" height="80" as="geometry"/></mxCell><mxCell id="16" value="count gap by calling method getNextGap(gap) swapped = false" style="rounded=1;whiteSpace=wrap;html=1;fillColor=#4D4D4D;" vertex="1" parent="1"><mxGeometry x="208" y="275" width="138" height="50" as="geometry"/></mxCell><mxCell id="17" value="array is sorted" style="shape=parallelogram;perimeter=parallelogramPerimeter;whiteSpace=wrap;html=1;fixedSize=1;" vertex="1" parent="1"><mxGeometry x="460" y="286" width="106" height="28" as="geometry"/></mxCell><mxCell id="18" value="" style="endArrow=classic;html=1;rounded=0;entryX=0.5;entryY=0;entryDx=0;entryDy=0;exitX=0;exitY=0.5;exitDx=0;exitDy=0;" edge="1" parent="1" source="15" target="16"><mxGeometry width="50" height="50" relative="1" as="geometry"><mxPoint x="307" y="308" as="sourcePoint"/><mxPoint x="357" y="258" as="targetPoint"/></mxGeometry></mxCell><mxCell id="21" value="while gap != 1 || swapped" style="edgeLabel;html=1;align=center;verticalAlign=middle;resizable=0;points=[];" vertex="1" connectable="0" parent="18"><mxGeometry x="0.0711" y="1" relative="1" as="geometry"><mxPoint as="offset"/></mxGeometry></mxCell><mxCell id="22" value="creating loop for, where we change distand numbers" style="rounded=1;whiteSpace=wrap;html=1;fillColor=#4D4D4D;" vertex="1" parent="1"><mxGeometry x="211" y="364" width="120" height="60" as="geometry"/></mxCell><mxCell id="23" value="" style="endArrow=classic;html=1;rounded=0;exitX=0.5;exitY=1;exitDx=0;exitDy=0;" edge="1" parent="1" source="16" target="22"><mxGeometry width="50" height="50" relative="1" as="geometry"><mxPoint x="275" y="447" as="sourcePoint"/><mxPoint x="213" y="356" as="targetPoint"/></mxGeometry></mxCell><mxCell id="25" value="if" style="rhombus;whiteSpace=wrap;html=1;fillColor=#4D4D4D;" vertex="1" parent="1"><mxGeometry x="222" y="445" width="48" height="48" as="geometry"/></mxCell><mxCell id="26" value="" style="rounded=1;whiteSpace=wrap;html=1;fillColor=#4D4D4D;" vertex="1" parent="1"><mxGeometry x="37" y="556" width="156" height="108" as="geometry"/></mxCell><mxCell id="27" value="" style="endArrow=classic;html=1;rounded=0;entryX=0.5;entryY=0;entryDx=0;entryDy=0;exitX=0;exitY=1;exitDx=0;exitDy=0;" edge="1" parent="1" source="25" target="26"><mxGeometry width="50" height="50" relative="1" as="geometry"><mxPoint x="343" y="542" as="sourcePoint"/><mxPoint x="393" y="492" as="targetPoint"/></mxGeometry></mxCell><mxCell id="28" value="first &amp;gt; last&amp;nbsp;" style="edgeLabel;html=1;align=center;verticalAlign=middle;resizable=0;points=[];" vertex="1" connectable="0" parent="27"><mxGeometry x="-0.2744" y="-1" relative="1" as="geometry"><mxPoint x="-1" as="offset"/></mxGeometry></mxCell><mxCell id="29" value="&lt;div style=&quot;background-color:#2b2b2b;color:#a9b7c6;font-family:'JetBrains Mono',monospace;font-size:9,8pt;&quot;&gt;&lt;pre&gt;&lt;span style=&quot;color:#cc7832;&quot;&gt;int &lt;/span&gt;temp = arr[i]&lt;span style=&quot;color:#cc7832;&quot;&gt;;&lt;br&gt;&lt;/span&gt;arr[i] = arr[i + gap]&lt;span style=&quot;color:#cc7832;&quot;&gt;;&lt;br&gt;&lt;/span&gt;arr[i + gap] = temp&lt;span style=&quot;color:#cc7832;&quot;&gt;;&lt;br&gt;&lt;/span&gt;swapped = &lt;span style=&quot;color:#cc7832;&quot;&gt;true;&lt;/span&gt;&lt;/pre&gt;&lt;/div&gt;" style="text;html=1;align=center;verticalAlign=middle;resizable=0;points=[];autosize=1;strokeColor=none;fillColor=none;" vertex="1" parent="1"><mxGeometry x="33.5" y="560" width="163" height="94" as="geometry"/></mxCell><mxCell id="30" value="" style="endArrow=classic;html=1;rounded=0;entryX=0;entryY=0;entryDx=0;entryDy=0;exitX=0.112;exitY=0.013;exitDx=0;exitDy=0;exitPerimeter=0;" edge="1" parent="1" source="29" target="15"><mxGeometry width="50" height="50" relative="1" as="geometry"><mxPoint x="61" y="222" as="sourcePoint"/><mxPoint x="111" y="172" as="targetPoint"/><Array as="points"><mxPoint x="56" y="181"/></Array></mxGeometry></mxCell><mxCell id="31" value="" style="endArrow=classic;html=1;rounded=0;exitX=1;exitY=1;exitDx=0;exitDy=0;" edge="1" parent="1" source="15" target="17"><mxGeometry width="50" height="50" relative="1" as="geometry"><mxPoint x="567" y="278" as="sourcePoint"/><mxPoint x="617" y="228" as="targetPoint"/></mxGeometry></mxCell><mxCell id="32" value="nothig to do" style="edgeLabel;html=1;align=center;verticalAlign=middle;resizable=0;points=[];" vertex="1" connectable="0" parent="31"><mxGeometry x="-0.2256" y="1" relative="1" as="geometry"><mxPoint as="offset"/></mxGeometry></mxCell><mxCell id="33" value="" style="endArrow=classic;html=1;rounded=0;exitX=0.426;exitY=1.007;exitDx=0;exitDy=0;exitPerimeter=0;" edge="1" parent="1" source="17" target="5"><mxGeometry width="50" height="50" relative="1" as="geometry"><mxPoint x="488" y="418" as="sourcePoint"/><mxPoint x="538" y="368" as="targetPoint"/></mxGeometry></mxCell><mxCell id="34" value="" style="endArrow=classic;html=1;rounded=0;exitX=0.383;exitY=1;exitDx=0;exitDy=0;exitPerimeter=0;entryX=1;entryY=0;entryDx=0;entryDy=0;" edge="1" parent="1" source="22" target="25"><mxGeometry width="50" height="50" relative="1" as="geometry"><mxPoint x="397" y="535" as="sourcePoint"/><mxPoint x="447" y="485" as="targetPoint"/></mxGeometry></mxCell></root></mxGraphModel></diagram></mxfile>